Encoded by Ratzz.




General
Complete name : Parzania 2007 Dvdrip x264 Ratzz.mp4
Format : MP4
Format profile : Base Media
Codec ID : isom
File size : 550 MiB
Duration : 1h 54mn
Overall bit rate : 669 Kbps

Video
ID : 1
Format : AVC
Format/Info : Advanced Video Codec
Format profile : High@L2.1
Format settings, CABAC : Yes
Format settings, ReFrames : 4 frames
Duration : 1h 54mn
Bit rate mode : Variable
Bit rate : 634 Kbps
Maximum bit rate : 3 917 Kbps
Width : 640 pixels
Height : 272 pixels
Display aspect ratio : 2.35:1
Frame rate mode : Constant
Frame rate : 23.976 fps
Color space : YUV
Chroma subsampling : 4:2:0
Bit depth : 8 bits
Scan type : Progressive
Bits/(Pixel*Frame) : 0.152
Stream size : 521 MiB (95%)


Audio
ID : 2
Format : AAC
Format/Info : Advanced Audio Codec
Format profile : HE-AAC / LC
Codec ID : 40
Duration : 1h 54mn
Bit rate mode : Variable
Bit rate : 32.0 Kbps
Maximum bit rate : 40.0 Kbps
Channel(s) : 2 channels
Channel positions : Front: L R
Sampling rate : 48.0 KHz / 24.0 KHz
Compression mode : Lossy
Stream size : 26.3 MiB (5%)


Poster :

 
http://img846.imageshack.us/img846/6373/parzaniaposter1.jpg



Screens :

 
http://img715.imageshack.us/img715/4821/parzania2007dvdripx264r.jpg
 
http://img696.imageshack.us/img696/4821/parzania2007dvdripx264r.jpg
 
http://img825.imageshack.us/img825/4821/parzania2007dvdripx264r.jpg








Pls seed back and give a reply.
Thank you.